<?xml version="1.0" encoding="UTF-8" standalone="no"?>
<!-- Created with Inkscape (http://www.inkscape.org/) -->

<svg
   width="6.8953152mm"
   height="7.9164338mm"
   viewBox="0 0 6.8953152 7.9164338"
   version="1.1"
   id="svg1"
   xml:space="preserve"
   inkscape:version="1.4 (e7c3feb100, 2024-10-09)"
   sodipodi:docname="softeng_final.svg"
   inkscape:export-batch-path="static/static"
   inkscape:export-batch-name="softeng_final"
   xmlns:inkscape="http://www.inkscape.org/namespaces/inkscape"
   xmlns:sodipodi="http://sodipodi.sourceforge.net/DTD/sodipodi-0.dtd"
   xmlns="http://www.w3.org/2000/svg"
   xmlns:svg="http://www.w3.org/2000/svg"><sodipodi:namedview
     id="namedview1"
     pagecolor="#505050"
     bordercolor="#eeeeee"
     borderopacity="1"
     inkscape:showpageshadow="0"
     inkscape:pageopacity="0"
     inkscape:pagecheckerboard="0"
     inkscape:deskcolor="#505050"
     inkscape:document-units="mm"
     inkscape:zoom="0.4103982"
     inkscape:cx="4170.3399"
     inkscape:cy="598.19951"
     inkscape:window-width="2560"
     inkscape:window-height="1404"
     inkscape:window-x="0"
     inkscape:window-y="0"
     inkscape:window-maximized="1"
     inkscape:current-layer="layer1"><inkscape:page
       x="0"
       y="0"
       width="6.8953152"
       height="7.9164338"
       id="page2"
       margin="0"
       bleed="0" /></sodipodi:namedview><defs
     id="defs1" /><g
     inkscape:label="Layer 1"
     inkscape:groupmode="layer"
     id="layer1"
     transform="translate(-1798.8229,61.209538)"><g
       style="fill:#1da2a2;fill-opacity:1"
       id="g20-9-5-0"
       transform="matrix(0.51073751,0,0,0.51073751,1795.8863,-63.380169)"
       inkscape:export-filename="static/recipes.svg"
       inkscape:export-xdpi="96"
       inkscape:export-ydpi="96"><path
         d="m 7.26895,15.666 c 0.09166,0.4039 0.49342,0.6571 0.89737,0.5654 C 8.57026,16.1398 8.82343,15.738 8.73177,15.334 Z M 6.50036,8.889 5.75048,8.90221 c 9.1e-4,0.05141 0.0071,0.1026 0.01847,0.15274 z m 2.25,-2.333 0.00136,-0.75 c -0.0051,-10e-6 -0.0102,3e-5 -0.0153,1.3e-4 z m 1.50604,0.6 -0.5148,0.54545 c 0.21218,0.20024 0.5212,0.25927 0.7923,0.15133 0.271,-0.10794 0.4548,-0.36326 0.4713,-0.65454 z M 12.5004,5 12.5126,4.2501 c -0.0081,-1.3e-4 -0.0163,-1.3e-4 -0.0245,0 z m 2.244,2.156 -0.7488,0.04224 c 0.0164,0.29128 0.2002,0.5466 0.4713,0.65454 0.271,0.10794 0.5801,0.04891 0.7922,-0.15133 z m 1.506,-0.6 0.0139,-0.74987 C 16.2592,5.80603 16.2541,5.80599 16.249,5.806 Z m 2.25,2.333 0.7314,0.16595 c 0.0114,-0.05014 0.0175,-0.10133 0.0184,-0.15274 z m -2.2314,6.445 c -0.0917,0.404 0.1615,0.8058 0.5654,0.8974 0.404,0.0917 0.8057,-0.1615 0.8974,-0.5654 z M 8.00036,14.75 c -0.41421,0 -0.75,0.3358 -0.75,0.75 0,0.4142 0.33579,0.75 0.75,0.75 z m 2.25004,1.5 c 0.4142,0 0.75,-0.3358 0.75,-0.75 0,-0.4142 -0.3358,-0.75 -0.75,-0.75 z M 8.75036,15.5 c 0,-0.4142 -0.33578,-0.75 -0.75,-0.75 -0.41421,0 -0.75,0.3358 -0.75,0.75 z m -0.75,1.167 0.74895,0.0398 c 7e-4,-0.0132 0.00105,-0.0265 0.00105,-0.0398 z M 10.0004,19 9.92528,19.7462 C 9.95023,19.7487 9.97529,19.75 10.0004,19.75 Z m 5,0 v 0.75 c 0.025,0 0.0501,-0.0013 0.0751,-0.0038 z m 2,-2.333 h -0.75 c 0,0.0133 3e-4,0.0266 0.001,0.0398 z m 0.75,-1.167 c 0,-0.4142 -0.3358,-0.75 -0.75,-0.75 -0.4143,0 -0.75,0.3358 -0.75,0.75 z m -6,0 c 0,0.4142 0.3357,0.75 0.75,0.75 0.4142,0 0.75,-0.3358 0.75,-0.75 z m 1.5,-3.5 c 0,-0.4142 -0.3358,-0.75 -0.75,-0.75 -0.4143,0 -0.75,0.3358 -0.75,0.75 z m -0.75,4.25 c 0.4142,0 0.75,-0.3358 0.75,-0.75 0,-0.4142 -0.3358,-0.75 -0.75,-0.75 z m -2.25,-1.5 c -0.41425,0 -0.75004,0.3358 -0.75004,0.75 0,0.4142 0.33579,0.75 0.75004,0.75 z m 2.25,0 c -0.4143,0 -0.75,0.3358 -0.75,0.75 0,0.4142 0.3357,0.75 0.75,0.75 z m 2.25,1.5 c 0.4142,0 0.75,-0.3358 0.75,-0.75 0,-0.4142 -0.3358,-0.75 -0.75,-0.75 z M 9.51701,15.6571 c 0.08679,0.4051 0.48549,0.663 0.89049,0.5763 0.405,-0.0868 0.663,-0.4855 0.5762,-0.8905 z m 0.71669,-3.8142 c -0.0868,-0.4051 -0.48546,-0.663 -0.89048,-0.5763 -0.40502,0.0868 -0.663,0.4855 -0.57621,0.8905 z m 6.7667,4.4071 c 0.4142,0 0.75,-0.3358 0.75,-0.75 0,-0.4142 -0.3358,-0.75 -0.75,-0.75 z m -2.25,-1.5 c -0.4143,0 -0.75,0.3358 -0.75,0.75 0,0.4142 0.3357,0.75 0.75,0.75 z m -0.7334,0.5929 c -0.0868,0.405 0.1712,0.8037 0.5762,0.8905 0.405,0.0867 0.8037,-0.1712 0.8905,-0.5763 z m 2.2167,-3.1858 c 0.0868,-0.405 -0.1712,-0.8037 -0.5762,-0.8905 -0.405,-0.0867 -0.8037,0.1712 -0.8905,0.5763 z m -7.50193,3.1769 -1.5,-6.61095 -1.46282,0.3319 1.5,6.61105 z M 7.25025,8.87579 C 7.23524,8.02433 7.91287,7.32171 8.76431,7.30587 L 8.73642,5.80613 C 7.05727,5.83736 5.72089,7.22304 5.75048,8.90221 Z M 8.74901,7.306 c 0.36914,6.6e-4 0.72413,0.14209 0.99259,0.39545 l 1.0295,-1.0909 C 10.2249,6.09509 9.50272,5.80736 8.75172,5.806 Z M 11.0052,7.19824 C 11.0505,6.39502 11.7082,5.76306 12.5126,5.7499 L 12.4881,4.2501 C 10.8977,4.27612 9.59714,5.52564 9.50755,7.11376 Z M 12.4881,5.7499 c 0.8044,0.01316 1.4621,0.64513 1.5075,1.44834 L 15.4932,7.11376 C 15.4036,5.52564 14.1031,4.27612 12.5126,4.2501 Z m 2.771,1.95155 C 15.5276,7.44809 15.8826,7.30666 16.2517,7.306 l -0.0027,-1.5 c -0.751,0.00136 -1.4732,0.28909 -2.0194,0.80455 z m 0.9773,-0.39558 c 0.8515,0.01584 1.5291,0.71846 1.5141,1.56992 l 1.4997,0.02642 C 19.2798,7.22304 17.9435,5.83736 16.2643,5.80613 Z m 1.5326,1.41718 -1.5,6.61095 1.4628,0.332 1.5,-6.61105 z M 8.00036,16.25 h 2.25004 v -1.5 H 8.00036 Z m -0.75,-0.75 v 1.167 h 1.5 V 15.5 Z m 0.00106,1.1272 c -0.08437,1.5868 1.09279,2.9599 2.67386,3.119 L 10.0755,18.2538 C 9.2913,18.1749 8.70746,17.4938 8.74931,16.7068 Z M 10.0004,19.75 h 5 v -1.5 h -5 z m 5.0751,-0.0038 c 1.581,-0.1591 2.7582,-1.5322 2.6738,-3.119 l -1.4979,0.0796 c 0.0419,0.787 -0.542,1.4681 -1.3261,1.547 z M 17.7504,16.667 V 15.5 h -1.5 v 1.167 z m -4.5,-1.167 V 12 h -1.5 v 3.5 z m -0.75,-0.75 h -2.25 v 1.5 h 2.25 z m 0,1.5 h 2.25 v -1.5 h -2.25 z m -1.5167,-0.9071 -0.75,-3.5 -1.46669,0.3142 0.75,3.5 z M 17.0004,14.75 h -2.25 v 1.5 h 2.25 z m -1.5167,0.9071 0.75,-3.5 -1.4667,-0.3142 -0.75,3.5 z"
         fill="#000000"
         id="path1-6-3-6-7"
         style="fill:#1da2a2;fill-opacity:1" /></g></g></svg>
