<?xml version="1.0" encoding="UTF-8" standalone="no"?>
<!-- Created with Inkscape (http://www.inkscape.org/) -->

<svg
   width="13.448196mm"
   height="13.448196mm"
   viewBox="0 0 13.448196 13.448196"
   version="1.1"
   id="svg1"
   xml:space="preserve"
   inkscape:version="1.4 (e7c3feb100, 2024-10-09)"
   sodipodi:docname="softeng_final.svg"
   inkscape:export-batch-path="static/static"
   inkscape:export-batch-name="softeng_final"
   xmlns:inkscape="http://www.inkscape.org/namespaces/inkscape"
   xmlns:sodipodi="http://sodipodi.sourceforge.net/DTD/sodipodi-0.dtd"
   xmlns="http://www.w3.org/2000/svg"
   xmlns:svg="http://www.w3.org/2000/svg"><sodipodi:namedview
     id="namedview1"
     pagecolor="#505050"
     bordercolor="#eeeeee"
     borderopacity="1"
     inkscape:showpageshadow="0"
     inkscape:pageopacity="0"
     inkscape:pagecheckerboard="0"
     inkscape:deskcolor="#505050"
     inkscape:document-units="mm"
     inkscape:zoom="0.4103982"
     inkscape:cx="4170.3399"
     inkscape:cy="598.19951"
     inkscape:window-width="2560"
     inkscape:window-height="1404"
     inkscape:window-x="0"
     inkscape:window-y="0"
     inkscape:window-maximized="1"
     inkscape:current-layer="layer1"><inkscape:page
       x="0"
       y="0"
       width="13.448196"
       height="13.448196"
       id="page1"
       margin="0"
       bleed="0" /></sodipodi:namedview><defs
     id="defs1" /><g
     inkscape:label="Layer 1"
     inkscape:groupmode="layer"
     id="layer1"
     transform="translate(-1821.3308,86.306007)"><rect
       style="fill:#ffffff;fill-opacity:1;stroke:none;stroke-width:1.957"
       id="rect4-2"
       width="13.448196"
       height="13.448196"
       x="1821.3308"
       y="-86.306007" /><g
       style="fill:#000000;fill-opacity:1"
       id="g19-61-5"
       transform="matrix(0.5090413,0,0,0.5090413,1821.6918,-85.6904)"
       inkscape:export-filename="static/history.svg"
       inkscape:export-xdpi="96"
       inkscape:export-ydpi="96"><path
         d="M 5.11413,8.35688 C 4.75894,8.56999 4.64377,9.03069 4.85688,9.38587 5.06999,9.74106 5.53069,9.85623 5.88587,9.64312 Z M 10.5,6 10.95,5.4 C 10.7061,5.21704 10.3756,5.19999 10.1141,5.35688 Z m 4,3 -0.45,0.6 c 0.2736,0.20522 0.6514,0.19932 0.9185,-0.01435 z M 19.9685,5.58565 C 20.292,5.32689 20.3444,4.85493 20.0857,4.53148 19.8269,4.20803 19.3549,4.15559 19.0315,4.41435 Z M 17.75,19 c 0,0.4142 0.3358,0.75 0.75,0.75 0.4142,0 0.75,-0.3358 0.75,-0.75 z m 1.5,-8 c 0,-0.4142 -0.3358,-0.75 -0.75,-0.75 -0.4142,0 -0.75,0.3358 -0.75,0.75 z m -9.5,8 c 0,0.4142 0.3358,0.75 0.75,0.75 0.4142,0 0.75,-0.3358 0.75,-0.75 z m 1.5,-8 c 0,-0.4142 -0.3358,-0.75 -0.75,-0.75 -0.4142,0 -0.75,0.3358 -0.75,0.75 z m 2.5,8 c 0,0.4142 0.3358,0.75 0.75,0.75 0.4142,0 0.75,-0.3358 0.75,-0.75 z m 1.5,-5 c 0,-0.4142 -0.3358,-0.75 -0.75,-0.75 -0.4142,0 -0.75,0.3358 -0.75,0.75 z m -9.5,5 c 0,0.4142 0.33579,0.75 0.75,0.75 0.41421,0 0.75,-0.3358 0.75,-0.75 z m 1.5,-5 c 0,-0.4142 -0.33579,-0.75 -0.75,-0.75 -0.41421,0 -0.75,0.3358 -0.75,0.75 z m -1.36413,-4.35688 5.00003,-3 -0.7718,-1.28624 -4.99997,3 z M 10.05,6.6 l 4,3 0.9,-1.2 -4,-3 z m 4.9185,2.98565 5,-4 -0.937,-1.1713 -5,4 z M 19.25,19 v -8 h -1.5 v 8 z m -8,0 v -8 h -1.5 v 8 z m 4,0 v -5 h -1.5 v 5 z m -8,0 v -5 h -1.5 v 5 z"
         fill="#000000"
         id="path1-2-3"
         style="fill:#000000;fill-opacity:1" /></g></g></svg>
