<?xml version="1.0" encoding="UTF-8" standalone="no"?>
<!-- Created with Inkscape (http://www.inkscape.org/) -->

<svg
   width="13.448196mm"
   height="13.448196mm"
   viewBox="0 0 13.448196 13.448196"
   version="1.1"
   id="svg1"
   xml:space="preserve"
   inkscape:version="1.4 (e7c3feb100, 2024-10-09)"
   sodipodi:docname="softeng_final.svg"
   inkscape:export-batch-path="static/static"
   inkscape:export-batch-name="softeng_final"
   xmlns:inkscape="http://www.inkscape.org/namespaces/inkscape"
   xmlns:sodipodi="http://sodipodi.sourceforge.net/DTD/sodipodi-0.dtd"
   xmlns="http://www.w3.org/2000/svg"
   xmlns:svg="http://www.w3.org/2000/svg"><sodipodi:namedview
     id="namedview1"
     pagecolor="#505050"
     bordercolor="#eeeeee"
     borderopacity="1"
     inkscape:showpageshadow="0"
     inkscape:pageopacity="0"
     inkscape:pagecheckerboard="0"
     inkscape:deskcolor="#505050"
     inkscape:document-units="mm"
     inkscape:zoom="0.4103982"
     inkscape:cx="4170.3399"
     inkscape:cy="598.19951"
     inkscape:window-width="2560"
     inkscape:window-height="1404"
     inkscape:window-x="0"
     inkscape:window-y="0"
     inkscape:window-maximized="1"
     inkscape:current-layer="layer1"><inkscape:page
       x="0"
       y="0"
       width="13.448196"
       height="13.448196"
       id="page1"
       margin="0"
       bleed="0" /></sodipodi:namedview><defs
     id="defs1" /><g
     inkscape:label="Layer 1"
     inkscape:groupmode="layer"
     id="layer1"
     transform="translate(-1822.6204,105.98804)"><rect
       style="fill:#ffffff;fill-opacity:1;stroke:none;stroke-width:1.957"
       id="rect4-2-3"
       width="13.448196"
       height="13.448196"
       x="1822.6204"
       y="-105.98804" /><path
       style="fill:#000000;fill-opacity:1;stroke:none;stroke-width:0.149017;stroke-opacity:1"
       d="m 1832.3818,-99.951714 c -0.1042,-0.007 -0.168,0.10165 -0.1506,0.19663 -0.029,1.06127 -0.01,2.12718 -0.013,3.19072 0.01,0.32645 -0.013,0.64653 0.023,0.96201 0.087,0.17324 0.3795,0.0657 0.339,-0.12103 0.021,-1.36689 0,-2.73987 0,-4.1093 -0.041,-0.0759 -0.1095,-0.13256 -0.2005,-0.11903 z"
       id="path15-6" /><path
       style="fill:#000000;fill-opacity:1;stroke:none;stroke-width:0.149017;stroke-opacity:1"
       d="m 1830.3599,-98.432554 c -0.1206,-0.002 -0.1974,0.1156 -0.1707,0.22932 -0.01,0.83764 -0.014,1.68791 0,2.52553 -0.013,0.17182 0.2396,0.2193 0.3235,0.0839 0.061,-0.12492 0.017,-0.27966 0.036,-0.41529 0.01,-0.76725 0.019,-1.53967 -0.014,-2.30659 -0.034,-0.0632 -0.1004,-0.12304 -0.1772,-0.11686 z"
       id="path16-9" /><path
       style="fill:#000000;fill-opacity:1;stroke:none;stroke-width:0.149017;stroke-opacity:1"
       d="m 1828.3166,-99.951754 c -0.1351,-0.004 -0.2007,0.14436 -0.169,0.26136 0.01,1.33407 -0.012,2.67181 0.012,4.00304 -0.027,0.16642 0.2167,0.23367 0.3101,0.11002 0.066,-0.10573 0.02,-0.25186 0.039,-0.37224 0.01,-1.27088 0.022,-2.54905 0,-3.81961 0.01,-0.10838 -0.083,-0.19603 -0.1922,-0.18257 z"
       id="path17-3" /><path
       style="fill:#000000;fill-opacity:1;stroke:none;stroke-width:0.149017;stroke-opacity:1"
       d="m 1826.2735,-98.429994 c -0.1007,-0.002 -0.1809,0.10963 -0.1638,0.20705 -0.015,0.83185 -0.023,1.67077 -0.01,2.50246 -0.02,0.16737 0.2138,0.28939 0.3212,0.14402 0.093,-0.12828 0.036,-0.30513 0.057,-0.45 -1e-4,-0.75587 0.011,-1.51342 -0.017,-2.26667 -0.01,-0.0794 -0.1108,-0.15741 -0.1917,-0.13686 z"
       id="path18-7" /><path
       style="fill:#000000;fill-opacity:1;stroke:none;stroke-width:0.149017;stroke-opacity:1"
       d="m 1832.8947,-103.01261 c -0.1235,0.0407 -0.2166,0.15565 -0.3271,0.22504 -0.7153,0.54396 -1.3962,1.13338 -2.1256,1.65833 -0.1791,0.10667 -0.3246,-0.10333 -0.463,-0.18659 -0.5406,-0.39538 -1.0624,-0.82025 -1.6235,-1.18572 -0.1013,-0.0145 -0.1815,0.0895 -0.2726,0.12072 -0.8189,0.47534 -1.6448,0.9571 -2.4339,1.47101 -0.1417,0.11884 0.022,0.36741 0.1899,0.29279 0.7973,-0.4521 1.578,-0.9391 2.3682,-1.40819 0.128,-0.0185 0.2459,0.0103 0.3355,0.10751 0.5869,0.43329 1.1594,0.88904 1.7621,1.29946 0.1384,0.0579 0.2259,-0.10505 0.333,-0.16188 0.7768,-0.61363 1.5595,-1.2209 2.3159,-1.85965 0.071,-0.0655 0.1891,-0.14251 0.1281,-0.25341 -0.032,-0.0711 -0.1085,-0.12156 -0.187,-0.11942 z"
       id="path19-4" /></g></svg>
