<?xml version="1.0" encoding="UTF-8" standalone="no"?>
<!-- Created with Inkscape (http://www.inkscape.org/) -->

<svg
   width="13.448196mm"
   height="13.448196mm"
   viewBox="0 0 13.448196 13.448196"
   version="1.1"
   id="svg1"
   xml:space="preserve"
   inkscape:version="1.4 (e7c3feb100, 2024-10-09)"
   sodipodi:docname="softeng_final.svg"
   inkscape:export-batch-path="static/static"
   inkscape:export-batch-name="softeng_final"
   xmlns:inkscape="http://www.inkscape.org/namespaces/inkscape"
   xmlns:sodipodi="http://sodipodi.sourceforge.net/DTD/sodipodi-0.dtd"
   xmlns="http://www.w3.org/2000/svg"
   xmlns:svg="http://www.w3.org/2000/svg"><sodipodi:namedview
     id="namedview1"
     pagecolor="#505050"
     bordercolor="#eeeeee"
     borderopacity="1"
     inkscape:showpageshadow="0"
     inkscape:pageopacity="0"
     inkscape:pagecheckerboard="0"
     inkscape:deskcolor="#505050"
     inkscape:document-units="mm"
     inkscape:zoom="0.4103982"
     inkscape:cx="4170.3399"
     inkscape:cy="598.19951"
     inkscape:window-width="2560"
     inkscape:window-height="1404"
     inkscape:window-x="0"
     inkscape:window-y="0"
     inkscape:window-maximized="1"
     inkscape:current-layer="layer1"><inkscape:page
       x="0"
       y="0"
       width="13.448196"
       height="13.448196"
       id="page1"
       margin="0"
       bleed="0" /></sodipodi:namedview><defs
     id="defs1" /><g
     inkscape:label="Layer 1"
     inkscape:groupmode="layer"
     id="layer1"
     transform="translate(-1779.0868,87.479088)"><rect
       style="fill:#ffffff;fill-opacity:1;stroke:none;stroke-width:1.957"
       id="rect4"
       width="13.448196"
       height="13.448196"
       x="1779.0868"
       y="-87.479088" /><g
       style="fill:#000000;fill-opacity:1"
       id="g22-7-1"
       transform="matrix(0.49902349,0,0,0.49902349,1779.573,-86.743839)"
       inkscape:export-filename="static/home.svg"
       inkscape:export-xdpi="96"
       inkscape:export-ydpi="96"><path
         d="m 9.35,19.0001 c 0,0.4142 0.33579,0.75 0.75,0.75 0.4142,0 0.75,-0.3358 0.75,-0.75 z M 10.1,16.7691 9.35055,16.7404 C 9.35018,16.75 9.35,16.7595 9.35,16.7691 Z m 2.4,-2.23 -0.0264,0.7495 c 0.0176,6e-4 0.0352,6e-4 0.0528,0 z m 2.4,2.23 h 0.75 c 0,-0.0096 -2e-4,-0.0191 -5e-4,-0.0287 z m -0.75,2.231 c 0,0.4142 0.3358,0.75 0.75,0.75 0.4142,0 0.75,-0.3358 0.75,-0.75 z m -4.05,-0.75 c -0.41421,0 -0.75,0.3358 -0.75,0.75 0,0.4142 0.33579,0.75 0.75,0.75 z m 4.8,1.5 c 0.4142,0 0.75,-0.3358 0.75,-0.75 0,-0.4142 -0.3358,-0.75 -0.75,-0.75 z m -4.8,0 c 0.4142,0 0.75,-0.3358 0.75,-0.75 0,-0.4142 -0.3358,-0.75 -0.75,-0.75 z m -0.6,-0.75 v -0.75 c -0.0088,0 -0.0176,10e-5 -0.0264,4e-4 z M 5.9,15.6541 H 5.15 c 0,0.0094 1.8e-4,0.0189 5.4e-4,0.0284 z M 6.65,8.94807 c 0,-0.41421 -0.33579,-0.75 -0.75,-0.75 -0.41421,0 -0.75,0.33579 -0.75,0.75 z M 3.0788,9.95652 C 2.73607,10.1891 2.64682,10.6555 2.87944,10.9983 3.11207,11.341 3.57848,11.4302 3.9212,11.1976 Z M 6.3212,9.56863 C 6.66393,9.336 6.75318,8.86959 6.52056,8.52687 6.28793,8.18415 5.82152,8.09489 5.4788,8.32752 Z M 5.47883,8.3275 C 5.13609,8.5601 5.04682,9.02651 5.27942,9.36924 5.51203,9.71198 5.97844,9.80125 6.32117,9.56865 Z M 11.116,5.40807 10.7091,4.77804 c -0.0048,0.0031 -0.0096,0.00625 -0.0143,0.00946 z m 2.768,0 0.4212,-0.62057 C 14.3005,4.78429 14.2957,4.78114 14.2909,4.77804 Z m 4.7948,4.16058 C 19.0216,9.80125 19.488,9.71198 19.7206,9.36924 19.9532,9.02651 19.8639,8.5601 19.5212,8.3275 Z M 14.9,18.2501 c -0.4142,0 -0.75,0.3358 -0.75,0.75 0,0.4142 0.3358,0.75 0.75,0.75 z m 0.6,0.75 0.0264,-0.7496 c -0.0088,-3e-4 -0.0176,-4e-4 -0.0264,-4e-4 z m 3.6,-3.346 0.7495,0.0284 c 3e-4,-0.0095 5e-4,-0.019 5e-4,-0.0284 z m 0.75,-6.70603 c 0,-0.41421 -0.3358,-0.75 -0.75,-0.75 -0.4142,0 -0.75,0.33579 -0.75,0.75 z m 1.229,2.24863 c 0.3428,0.2326 0.8092,0.1432 1.0417,-0.1996 0.2325,-0.3428 0.1431,-0.8092 -0.1997,-1.0417 z M 19.521,8.3274 C 19.1782,8.09487 18.7119,8.18426 18.4793,8.52705 18.2468,8.86984 18.3362,9.33622 18.679,9.56875 Z M 10.85,19.0001 v -2.231 h -1.5 v 2.231 z m -5e-4,-2.2024 c 0.033,-0.8646 0.7594,-1.5396 1.6241,-1.5091 l 0.0528,-1.4991 C 10.8355,13.73 9.41513,15.0497 9.35055,16.7404 Z m 1.6769,-1.5091 c 0.8647,-0.0305 1.5911,0.6445 1.6241,1.5091 l 1.499,-0.0573 C 15.5849,15.0497 14.1645,13.73 12.4736,13.7895 Z m 1.6236,1.4805 v 2.231 h 1.5 v -2.231 z m -4.05,2.981 h 4.8 v -1.5 h -4.8 z m 0,-1.5 H 9.5 v 1.5 h 0.6 z m -0.6264,4e-4 C 7.96966,18.3035 6.70648,17.1294 6.64946,15.6257 l -1.49892,0.0568 c 0.08834,2.33 2.04558,4.1492 4.37586,4.0671 z M 6.65,15.6541 V 8.94807 h -1.5 v 6.70603 z m -2.7288,-4.4565 2.4,-1.62897 -0.8424,-1.24111 -2.4,1.629 z M 6.32117,9.56865 11.5372,6.02865 10.6948,4.7875 5.47883,8.3275 Z M 11.5229,6.0381 c 0.5948,-0.38413 1.3594,-0.38413 1.9542,0 l 0.8138,-1.26006 c -1.0901,-0.70405 -2.4917,-0.70405 -3.5818,0 z m 1.9399,-0.00945 5.216,3.54 0.8424,-1.24115 -5.216,-3.54 z M 14.9,19.7501 h 0.6 v -1.5 h -0.6 z m 0.5736,-5e-4 c 2.3303,0.0821 4.2875,-1.7371 4.3759,-4.0671 l -1.499,-0.0568 c -0.057,1.5037 -1.3202,2.6778 -2.8241,2.6248 z M 19.85,15.6541 V 8.94807 h -1.5 v 6.70603 z m 2.071,-5.6987 -2.4,-1.628 -0.842,1.24135 2.4,1.62795 z"
         fill="#000000"
         id="path1-7-8-2"
         style="fill:#000000;fill-opacity:1" /></g></g></svg>
