<?xml version="1.0" encoding="UTF-8" standalone="no"?>
<!-- Created with Inkscape (http://www.inkscape.org/) -->

<svg
   width="13.448196mm"
   height="13.448196mm"
   viewBox="0 0 13.448196 13.448196"
   version="1.1"
   id="svg1"
   xml:space="preserve"
   inkscape:version="1.4 (e7c3feb100, 2024-10-09)"
   sodipodi:docname="softeng_final.svg"
   inkscape:export-batch-path="static/static"
   inkscape:export-batch-name="softeng_final"
   xmlns:inkscape="http://www.inkscape.org/namespaces/inkscape"
   xmlns:sodipodi="http://sodipodi.sourceforge.net/DTD/sodipodi-0.dtd"
   xmlns="http://www.w3.org/2000/svg"
   xmlns:svg="http://www.w3.org/2000/svg"><sodipodi:namedview
     id="namedview1"
     pagecolor="#505050"
     bordercolor="#eeeeee"
     borderopacity="1"
     inkscape:showpageshadow="0"
     inkscape:pageopacity="0"
     inkscape:pagecheckerboard="0"
     inkscape:deskcolor="#505050"
     inkscape:document-units="mm"
     inkscape:zoom="0.4103982"
     inkscape:cx="4170.3399"
     inkscape:cy="598.19951"
     inkscape:window-width="2560"
     inkscape:window-height="1404"
     inkscape:window-x="0"
     inkscape:window-y="0"
     inkscape:window-maximized="1"
     inkscape:current-layer="layer1"><inkscape:page
       x="0"
       y="0"
       width="13.448196"
       height="13.448196"
       id="page1"
       margin="0"
       bleed="0" /></sodipodi:namedview><defs
     id="defs1" /><g
     inkscape:label="Layer 1"
     inkscape:groupmode="layer"
     id="layer1"
     transform="translate(-1780.3763,107.16113)"><rect
       style="fill:#ffffff;fill-opacity:1;stroke:none;stroke-width:1.957"
       id="rect4-0"
       width="13.448196"
       height="13.448196"
       x="1780.3763"
       y="-107.16113" /><path
       style="fill:#000000;fill-opacity:1;stroke:none;stroke-width:0.149017;stroke-opacity:1"
       d="m 1787.0616,-104.10212 c -0.3306,-0.0146 -0.6331,0.14274 -0.8929,0.33175 -1.2367,0.82052 -2.4715,1.64948 -3.6806,2.50679 -0.1189,0.0899 -0.025,0.3169 0.1293,0.29492 0.2589,-0.11421 0.4779,-0.30391 0.7221,-0.44869 0.125,0.0263 0.3122,0.0864 0.2795,0.24761 0.017,0.93584 0,1.873526 0.03,2.806986 0.1067,0.61419 0.5237,1.16941 1.0967,1.42362 0.2578,0.13504 0.5489,0.16672 0.8356,0.15984 1.1254,0.015 2.2601,0.0265 3.3883,-0.0127 0.7792,-0.11537 1.4427,-0.76844 1.5741,-1.54376 0.034,-0.97622 0.01,-1.956936 0.035,-2.935296 0.04,-0.0823 0.1722,-0.1254 0.2594,-0.15511 0.2536,0.14092 0.4783,0.33724 0.7429,0.45598 0.163,0.0204 0.2658,-0.22552 0.114,-0.31167 -1.2726,-0.8914 -2.5593,-1.76021 -3.8554,-2.61713 -0.227,-0.15613 -0.506,-0.21328 -0.7781,-0.20309 z m 0.042,0.35883 c 0.2549,-0.008 0.4933,0.0998 0.6933,0.25066 0.7873,0.51938 1.5715,1.04711 2.3453,1.58431 0.1248,0.13237 0.046,0.33582 0.068,0.50052 -0.01,0.96283 0.019,1.926466 -0.018,2.888756 -0.039,0.6986 -0.6445,1.29293 -1.329,1.37935 -0.1019,0.0143 -0.21,0.0438 -0.2766,-0.058 -0.1367,-0.0612 -0.1177,-0.19932 -0.1157,-0.32481 -0.019,-0.29163 0.025,-0.59266 -0.048,-0.87779 -0.1726,-0.55519 -0.7257,-0.98104 -1.3155,-0.94808 -0.5553,-0.0264 -1.0989,0.32966 -1.2963,0.84999 -0.1274,0.31909 -0.068,0.67327 -0.093,1.00811 0.016,0.13893 -0.017,0.3059 -0.1678,0.35342 -0.2243,0.0386 -0.4597,-0.0539 -0.667,-0.14127 -0.4499,-0.20657 -0.7974,-0.64421 -0.8692,-1.13645 -0.049,-0.71031 -0.016,-1.42362 -0.026,-2.135126 0.01,-0.41816 -0.015,-0.84024 0.011,-1.25595 0.052,-0.16224 0.2503,-0.21157 0.3703,-0.3182 0.7607,-0.51032 1.5082,-1.04182 2.2854,-1.5269 0.1397,-0.0646 0.2947,-0.093 0.4482,-0.0925 z m 0.021,4.759016 c 0.4057,-0.0138 0.7883,0.255 0.9308,0.63191 0.093,0.27381 0.04,0.57158 0.061,0.85539 0.021,0.13818 -0.01,0.30661 -0.1554,0.35886 -0.2089,0.0361 -0.4358,0.005 -0.6515,0.0155 -0.3618,-0.007 -0.7267,0.0136 -1.0866,-0.0207 -0.1972,-0.071 -0.1366,-0.31039 -0.1493,-0.47205 0,-0.32778 -0.017,-0.68992 0.1985,-0.96338 0.1909,-0.2787 0.519,-0.42071 0.8521,-0.4055 z"
       id="path24-7" /></g></svg>
