<?xml version="1.0" encoding="UTF-8" standalone="no"?>
<!-- Created with Inkscape (http://www.inkscape.org/) -->

<svg
   width="13.448196mm"
   height="13.448196mm"
   viewBox="0 0 13.448196 13.448196"
   version="1.1"
   id="svg1"
   xml:space="preserve"
   inkscape:version="1.4 (e7c3feb100, 2024-10-09)"
   sodipodi:docname="softeng_final.svg"
   inkscape:export-batch-path="static/static"
   inkscape:export-batch-name="softeng_final"
   xmlns:inkscape="http://www.inkscape.org/namespaces/inkscape"
   xmlns:sodipodi="http://sodipodi.sourceforge.net/DTD/sodipodi-0.dtd"
   xmlns="http://www.w3.org/2000/svg"
   xmlns:svg="http://www.w3.org/2000/svg"><sodipodi:namedview
     id="namedview1"
     pagecolor="#505050"
     bordercolor="#eeeeee"
     borderopacity="1"
     inkscape:showpageshadow="0"
     inkscape:pageopacity="0"
     inkscape:pagecheckerboard="0"
     inkscape:deskcolor="#505050"
     inkscape:document-units="mm"
     inkscape:zoom="0.4103982"
     inkscape:cx="4170.3399"
     inkscape:cy="598.19951"
     inkscape:window-width="2560"
     inkscape:window-height="1404"
     inkscape:window-x="0"
     inkscape:window-y="0"
     inkscape:window-maximized="1"
     inkscape:current-layer="layer1"><inkscape:page
       x="0"
       y="0"
       width="13.448196"
       height="13.448196"
       id="page1"
       margin="0"
       bleed="0" /></sodipodi:namedview><defs
     id="defs1" /><g
     inkscape:label="Layer 1"
     inkscape:groupmode="layer"
     id="layer1"
     transform="translate(-1842.6434,106.39197)"><rect
       style="fill:#ffffff;fill-opacity:1;stroke:none;stroke-width:1.957"
       id="rect4-7-2"
       width="13.448196"
       height="13.448196"
       x="1842.6434"
       y="-106.39197" /><path
       style="fill:#000000;fill-opacity:1;stroke:none;stroke-width:0.0745085;stroke-opacity:1"
       d="m 1849.3567,-103.34114 c -0.4328,-0.005 -0.845,0.24114 -1.0798,0.59919 -0.071,0.0899 -0.097,0.23467 -0.2277,0.25786 -0.127,0.0103 -0.2423,-0.0619 -0.3681,-0.071 -0.5401,-0.0818 -1.1063,0.22345 -1.3472,0.71155 -0.099,0.1937 -0.1483,0.41338 -0.144,0.63011 0.2423,1.11329 0.5042,2.223786 0.7501,3.336786 0.01,0.27352 -0.014,0.5415 0.013,0.81282 0.072,0.43617 0.3821,0.82164 0.7936,0.98356 0.1383,0.0588 0.2918,0.0909 0.4392,0.0834 0.7696,0.006 1.5409,0.008 2.3101,0.002 0.157,-2.6e-4 0.3169,-0.009 0.4625,-0.0736 0.4414,-0.16096 0.7782,-0.5845 0.83,-1.05202 0.016,-0.28515 0,-0.57206 0.024,-0.85652 0.2443,-1.06998 0.4886,-2.139956 0.7328,-3.209936 0,-0.21123 -0.03,-0.42508 -0.1255,-0.61573 -0.2377,-0.53071 -0.8597,-0.86446 -1.4325,-0.73927 -0.1207,0.0188 -0.254,0.10395 -0.3695,0.0234 -0.1006,-0.0779 -0.1291,-0.21118 -0.2141,-0.30356 -0.2451,-0.31638 -0.6421,-0.53168 -1.0471,-0.51887 z m 0.025,0.36983 c 0.4178,0.005 0.8075,0.32256 0.8942,0.73185 0.032,0.10563 0.01,0.25215 0.1199,0.31344 0.048,0.0312 0.1124,0.017 0.1655,0.0103 0.1232,-0.0938 0.2501,-0.18872 0.3994,-0.23761 0.3536,-0.12184 0.7635,0.0205 0.9968,0.30543 0.1417,0.17055 0.2222,0.39544 0.2164,0.61698 -0.2263,0.9935 -0.4489,1.987856 -0.6789,2.980486 -0.046,0.0788 -0.1221,0.15519 -0.2209,0.14034 -0.1107,-0.003 -0.2282,0.006 -0.3342,-0.0106 -0.066,-0.0596 -0.1331,-0.11918 -0.1647,-0.20529 0,-0.0769 0.031,-0.15935 0.042,-0.23837 0.076,-0.36638 0.1624,-0.73063 0.2302,-1.09862 0,-0.10737 -0.1,-0.20958 -0.209,-0.18322 -0.084,0.003 -0.1522,0.0828 -0.1559,0.16535 -0.1124,0.478 -0.2044,0.96092 -0.3164,1.43878 -0.041,0.11352 -0.1719,0.1397 -0.2785,0.13287 -0.1165,0.001 -0.233,2.7e-4 -0.3495,5.3e-4 -0.059,-0.066 -0.1502,-0.11293 -0.1852,-0.19458 0,-0.4711 0,-0.94219 -0.01,-1.41329 -0.03,-0.0812 -0.1115,-0.15064 -0.2028,-0.12968 -0.1078,-0.002 -0.1738,0.12038 -0.1614,0.2178 -0.01,0.44536 0,0.88865 -0.01,1.33459 -0.066,0.0593 -0.1131,0.15063 -0.1953,0.18516 -0.1487,-0.004 -0.3015,0.007 -0.4476,-0.005 -0.082,-0.048 -0.1831,-0.10345 -0.1873,-0.21007 -0.1046,-0.47695 -0.1988,-0.95685 -0.3149,-1.43085 -0.041,-0.0569 -0.1025,-0.11038 -0.1783,-0.0913 -0.1143,-0.004 -0.1942,0.13242 -0.1563,0.2357 0.081,0.42674 0.1798,0.85007 0.2673,1.27561 -0.01,0.0847 -0.031,0.18521 -0.124,0.21245 -0.1351,0.0239 -0.2749,0.0127 -0.4116,0.009 -0.1107,-5.3e-4 -0.1974,-0.0945 -0.207,-0.20167 -0.2247,-0.97844 -0.4463,-1.957656 -0.6581,-2.938936 -0.01,-0.20335 0.071,-0.40575 0.1911,-0.56749 0.2056,-0.27012 0.5643,-0.42481 0.9014,-0.35991 0.1843,0.0262 0.347,0.12579 0.486,0.24499 0.05,0.0435 0.1253,0.0287 0.1854,0.0184 0.073,-0.0403 0.1071,-0.11977 0.1081,-0.20037 0.027,-0.20781 0.1083,-0.41446 0.2653,-0.55813 0.1448,-0.16376 0.3504,-0.26757 0.5677,-0.28929 0.037,-0.004 0.075,-0.006 0.1121,-0.006 z m -0.016,5.237676 c 0.6246,0 1.2491,0 1.8736,0 0.061,0.0619 0.1356,0.11153 0.1853,0.18302 0,0.22763 0.022,0.46924 -0.091,0.67708 -0.1485,0.30951 -0.4804,0.52426 -0.8262,0.51317 -0.7301,0.007 -1.4603,0.005 -2.1905,-2.6e-4 -0.169,-0.001 -0.345,-0.007 -0.4964,-0.0915 -0.3067,-0.15018 -0.5164,-0.47976 -0.5123,-0.82264 0,-0.0911 0,-0.18224 0,-0.27336 0.066,-0.0594 0.1129,-0.15092 0.1953,-0.18542 0.6212,0 1.2424,0 1.8635,0 z"
       id="path14-5" /></g></svg>
