<?xml version="1.0" encoding="UTF-8" standalone="no"?>
<!-- Created with Inkscape (http://www.inkscape.org/) -->

<svg
   width="13.448196mm"
   height="13.448196mm"
   viewBox="0 0 13.448196 13.448196"
   version="1.1"
   id="svg1"
   xml:space="preserve"
   inkscape:version="1.4 (e7c3feb100, 2024-10-09)"
   sodipodi:docname="softeng_final.svg"
   inkscape:export-batch-path="static/static"
   inkscape:export-batch-name="softeng_final"
   xmlns:inkscape="http://www.inkscape.org/namespaces/inkscape"
   xmlns:sodipodi="http://sodipodi.sourceforge.net/DTD/sodipodi-0.dtd"
   xmlns="http://www.w3.org/2000/svg"
   xmlns:svg="http://www.w3.org/2000/svg"><sodipodi:namedview
     id="namedview1"
     pagecolor="#505050"
     bordercolor="#eeeeee"
     borderopacity="1"
     inkscape:showpageshadow="0"
     inkscape:pageopacity="0"
     inkscape:pagecheckerboard="0"
     inkscape:deskcolor="#505050"
     inkscape:document-units="mm"
     inkscape:zoom="0.4103982"
     inkscape:cx="4170.3399"
     inkscape:cy="598.19951"
     inkscape:window-width="2560"
     inkscape:window-height="1404"
     inkscape:window-x="0"
     inkscape:window-y="0"
     inkscape:window-maximized="1"
     inkscape:current-layer="layer1"><inkscape:page
       x="0"
       y="0"
       width="13.448196"
       height="13.448196"
       id="page1"
       margin="0"
       bleed="0" /></sodipodi:namedview><defs
     id="defs1" /><g
     inkscape:label="Layer 1"
     inkscape:groupmode="layer"
     id="layer1"
     transform="translate(-1801.4866,106.44888)"><rect
       style="fill:#ffffff;fill-opacity:1;stroke:none;stroke-width:1.957"
       id="rect4-3-6"
       width="13.448196"
       height="13.448196"
       x="1801.4866"
       y="-106.44888" /><path
       style="fill:#000000;fill-opacity:1;stroke:none;stroke-width:0.149017;stroke-opacity:1"
       d="m 1807.6365,-103.40422 c -0.3857,0.0127 -0.7713,-0.0206 -1.1543,0.0329 -0.5239,0.0947 -0.9653,0.59721 -0.9328,1.13895 -0.013,0.22043 0,0.44895 -0.026,0.66465 -0.053,0.14835 -0.2097,0.184 -0.3508,0.1686 -0.1858,0.0146 -0.381,-0.01 -0.5618,0.034 -0.1462,0.0952 -0.047,0.34974 0.1249,0.31798 0.2108,0.0155 0.4297,-0.001 0.6353,0.0292 0.1387,0.0517 0.1864,0.19914 0.1632,0.33547 -0.01,0.1995 0.014,0.40686 -0.01,0.60153 -0.048,0.140056 -0.1941,0.191656 -0.331,0.172226 -0.1919,0.0162 -0.3955,-0.0124 -0.5807,0.0389 -0.146,0.0954 -0.046,0.36583 0.1335,0.31598 0.2072,0.0127 0.4232,-0.003 0.6252,0.0268 0.1388,0.0516 0.1865,0.19913 0.1634,0.33549 -0.01,0.1995 0.014,0.40685 -0.01,0.60153 -0.048,0.14006 -0.194,0.19166 -0.3309,0.1722 -0.1853,0.015 -0.3793,-0.009 -0.56,0.0315 -0.1583,0.0731 -0.098,0.3413 0.076,0.33309 0.222,0.0234 0.4486,-1e-4 0.6678,0.0314 0.149,0.0531 0.184,0.21159 0.1669,0.35285 0.025,0.31591 -0.048,0.65728 0.108,0.9492 0.2031,0.40925 0.6521,0.70228 1.1165,0.66217 1.3486,0.009 2.7061,0.0144 4.0541,-0.007 0.3307,-0.006 0.6309,-0.21539 0.83,-0.46828 0.1554,-0.19813 0.2329,-0.44975 0.2145,-0.69779 0.025,-1.68671 0.028,-3.377426 0,-5.064016 0.011,-0.44028 -0.3055,-0.83305 -0.6962,-1.00711 -0.273,-0.13541 -0.5903,-0.0725 -0.8814,-0.0938 -0.8838,-0.006 -1.7676,-0.01 -2.6515,-0.008 z m 2.2603,0.37315 c 0.3495,0.0122 0.705,-0.0256 1.0507,0.0353 0.3238,0.0968 0.5753,0.40983 0.5612,0.7541 0.036,1.09748 0.012,2.19613 0.019,3.294066 -0.01,0.61756 0.016,1.23679 -0.024,1.85328 -0.046,0.32428 -0.3178,0.60253 -0.6344,0.66685 -1.3634,-0.003 -2.727,0.0178 -4.0902,-0.003 -0.219,-0.004 -0.4675,-0.0215 -0.6159,-0.20651 -0.1778,-0.15835 -0.2757,-0.39061 -0.2573,-0.62876 0,-0.19611 -0.021,-0.3993 2e-4,-0.59084 0.044,-0.14139 0.1799,-0.19073 0.3153,-0.19548 0.2707,-0.008 0.1815,-0.41239 -0.064,-0.35939 -0.1706,0.0148 -0.2958,-0.16611 -0.2582,-0.32659 0.01,-0.21299 -0.014,-0.43361 0.01,-0.64182 0.047,-0.1387 0.1921,-0.18752 0.3264,-0.17027 0.19,-0.005 0.2108,-0.32336 0.017,-0.34226 -0.132,-5.3e-4 -0.2878,-0.0284 -0.3382,-0.169566 -0.037,-0.21555 -0.01,-0.44809 -0.016,-0.67022 -0.032,-0.17419 0.1272,-0.33734 0.3031,-0.31102 0.1696,0.0217 0.2682,-0.24679 0.1104,-0.32542 -0.1186,-0.0447 -0.259,-0.006 -0.3483,-0.1184 -0.1061,-0.15124 -0.034,-0.35116 -0.055,-0.52515 0,-0.23757 -0.02,-0.503 0.1543,-0.69155 0.1564,-0.19497 0.3943,-0.35786 0.655,-0.31987 1.0595,-0.002 2.1189,-0.006 3.1784,-0.007 z"
       id="path20-5" /><path
       style="fill:#000000;fill-opacity:1;stroke:none;stroke-width:0.149017;stroke-opacity:1"
       d="m 1807.9078,-101.39351 c -0.2679,0.007 -0.5334,-0.0111 -0.7996,0.0268 -0.1359,0.0899 -0.067,0.34394 0.1074,0.31506 0.9616,0.0172 1.9411,0.007 2.8984,-0.002 0.1038,0.003 0.2483,0.008 0.2666,-0.12667 0.025,-0.10537 -0.054,-0.22695 -0.1724,-0.19954 -0.7633,-0.0274 -1.5336,-0.008 -2.3004,-0.0136 z"
       id="path21-2" /><path
       style="fill:#000000;fill-opacity:1;stroke:none;stroke-width:0.149017;stroke-opacity:1"
       d="m 1809.53,-99.899974 c -0.4626,0.002 -0.9253,0.005 -1.388,0.007 -0.1464,0.0577 -0.1383,0.28376 0.01,0.33771 0.624,0.0158 1.2616,0.005 1.8861,0.004 0.1177,-0.009 0.3029,0.0357 0.3401,-0.12175 0.043,-0.12205 -0.069,-0.24969 -0.1965,-0.22323 -0.2113,-0.007 -0.4294,-0.004 -0.6487,-0.004 z"
       id="path22-5" /><path
       style="fill:#000000;fill-opacity:1;stroke:none;stroke-width:0.149017;stroke-opacity:1"
       d="m 1809.1119,-98.377424 c -0.1259,0.0764 -0.098,0.28556 0.049,0.31994 0.3197,0.0299 0.6568,0.01 0.9832,0.008 0.082,5.3e-4 0.1914,-2.6e-4 0.2249,-0.10291 0.063,-0.11997 -0.055,-0.28523 -0.193,-0.24661 -0.3374,-0.005 -0.685,-0.002 -1.0271,-0.003 -0.013,0.008 -0.025,0.0164 -0.037,0.0245 z"
       id="path23-4" /></g></svg>
