<?xml version="1.0" encoding="UTF-8" standalone="no"?>
<!-- Created with Inkscape (http://www.inkscape.org/) -->

<svg
   width="13.448196mm"
   height="13.448196mm"
   viewBox="0 0 13.448196 13.448196"
   version="1.1"
   id="svg1"
   xml:space="preserve"
   inkscape:version="1.4 (e7c3feb100, 2024-10-09)"
   sodipodi:docname="softeng_final.svg"
   inkscape:export-batch-path="static/static"
   inkscape:export-batch-name="softeng_final"
   xmlns:inkscape="http://www.inkscape.org/namespaces/inkscape"
   xmlns:sodipodi="http://sodipodi.sourceforge.net/DTD/sodipodi-0.dtd"
   xmlns="http://www.w3.org/2000/svg"
   xmlns:svg="http://www.w3.org/2000/svg"><sodipodi:namedview
     id="namedview1"
     pagecolor="#505050"
     bordercolor="#eeeeee"
     borderopacity="1"
     inkscape:showpageshadow="0"
     inkscape:pageopacity="0"
     inkscape:pagecheckerboard="0"
     inkscape:deskcolor="#505050"
     inkscape:document-units="mm"
     inkscape:zoom="0.4103982"
     inkscape:cx="4170.3399"
     inkscape:cy="598.19951"
     inkscape:window-width="2560"
     inkscape:window-height="1404"
     inkscape:window-x="0"
     inkscape:window-y="0"
     inkscape:window-maximized="1"
     inkscape:current-layer="layer1"><inkscape:page
       x="0"
       y="0"
       width="13.448196"
       height="13.448196"
       id="page1"
       margin="0"
       bleed="0" /></sodipodi:namedview><defs
     id="defs1" /><g
     inkscape:label="Layer 1"
     inkscape:groupmode="layer"
     id="layer1"
     transform="translate(-1800.197,86.766846)"><rect
       style="fill:#ffffff;fill-opacity:1;stroke:none;stroke-width:1.957"
       id="rect4-3"
       width="13.448196"
       height="13.448196"
       x="1800.197"
       y="-86.766846" /><g
       style="fill:#000000;fill-opacity:1"
       id="g21-1-2"
       transform="matrix(0.49902349,0,0,0.49902349,1800.6833,-86.031031)"
       inkscape:export-filename="static/routine.svg"
       inkscape:export-xdpi="96"
       inkscape:export-ydpi="96"><path
         d="M 5.5,8.25 C 5.08579,8.25 4.75,8.58579 4.75,9 c 0,0.41421 0.33579,0.75 0.75,0.75 z m 3,1.5 C 8.91421,9.75 9.25,9.41421 9.25,9 9.25,8.58579 8.91421,8.25 8.5,8.25 Z m 2,-1.5 c -0.4142,0 -0.75,0.33579 -0.75,0.75 0,0.41421 0.3358,0.75 0.75,0.75 z m 6,1.5 c 0.4142,0 0.75,-0.33579 0.75,-0.75 0,-0.41421 -0.3358,-0.75 -0.75,-0.75 z m -4,1.5 c -0.4142,0 -0.75,0.3358 -0.75,0.75 0,0.4142 0.3358,0.75 0.75,0.75 z m 4,1.5 c 0.4142,0 0.75,-0.3358 0.75,-0.75 0,-0.4142 -0.3358,-0.75 -0.75,-0.75 z m -2,1.5 c -0.4142,0 -0.75,0.3358 -0.75,0.75 0,0.4142 0.3358,0.75 0.75,0.75 z m 2,1.5 c 0.4142,0 0.75,-0.3358 0.75,-0.75 0,-0.4142 -0.3358,-0.75 -0.75,-0.75 z m -11,-4.5 c -0.41421,0 -0.75,0.3358 -0.75,0.75 0,0.4142 0.33579,0.75 0.75,0.75 z m 3,1.5 c 0.41421,0 0.75,-0.3358 0.75,-0.75 0,-0.4142 -0.33579,-0.75 -0.75,-0.75 z m -3,1.5 c -0.41421,0 -0.75,0.3358 -0.75,0.75 0,0.4142 0.33579,0.75 0.75,0.75 z m 3,1.5 c 0.41421,0 0.75,-0.3358 0.75,-0.75 0,-0.4142 -0.33579,-0.75 -0.75,-0.75 z m -3,-6 h 3 v -1.5 h -3 z m 5,0 h 6 v -1.5 h -6 z m 2,3 h 4 v -1.5 h -4 z m 2,3 h 2 v -1.5 h -2 z m -9,-3 h 3 v -1.5 h -3 z m 0,3 h 3 v -1.5 h -3 z M 8.25,17 V 7 h -1.5 v 10 z m 0,-10 C 8.25,6.30964 8.80964,5.75 9.5,5.75 V 4.25 C 7.98122,4.25 6.75,5.48122 6.75,7 Z M 9.5,5.75 h 8 v -1.5 h -8 z m 8,0 c 0.6904,0 1.25,0.55964 1.25,1.25 h 1.5 C 20.25,5.48122 19.0188,4.25 17.5,4.25 Z M 18.75,7 v 10 h 1.5 V 7 Z m 0,10 c 0,0.6904 -0.5596,1.25 -1.25,1.25 v 1.5 c 1.5188,0 2.75,-1.2312 2.75,-2.75 z m -1.25,1.25 h -8 v 1.5 h 8 z m -8,0 C 8.80964,18.25 8.25,17.6904 8.25,17 h -1.5 c 0,1.5188 1.23122,2.75 2.75,2.75 z"
         fill="#000000"
         id="path1-61-94-9"
         style="fill:#000000;fill-opacity:1" /></g></g></svg>
